<?xml version="1.0" encoding="UTF-8"?> <svg xmlns="http://www.w3.org/2000/svg" width="812" height="336" viewBox="0 0 812 336" fill="none"><path d="M64.4628 198.236C79.2287 253.485 135.987 286.303 191.236 271.537C246.485 256.771 279.303 200.012 264.537 144.763C249.771 89.5145 193.013 56.6965 137.764 71.4625L134.272 58.3986C196.736 41.7043 260.907 78.808 277.601 141.272C294.295 203.736 257.192 267.906 194.728 284.601C132.264 301.295 68.0931 264.191 51.3989 201.727C34.7046 139.263 71.8083 75.0929 134.272 58.3986L137.764 71.4625C82.5148 86.2285 49.6968 142.987 64.4628 198.236Z" fill="#974315"></path><path d="M64.463 198.236C79.229 253.485 135.987 286.303 191.236 271.537C246.485 256.771 279.303 200.012 264.537 144.763C249.771 89.5145 193.013 56.6965 137.764 71.4625L134.272 58.3986C196.736 41.7043 260.907 78.808 277.601 141.272C294.295 203.736 257.192 267.906 194.728 284.601C132.264 301.295 68.0934 264.191 51.3991 201.727C34.7048 139.263 71.8085 75.0929 134.272 58.3986L137.764 71.4625C82.515 86.2285 49.697 142.987 64.463 198.236Z" fill="#974315"></path><path d="M102.97 238.426C133.724 277.084 190.071 283.477 228.83 252.642C267.59 221.807 274.028 165.466 243.274 126.807C212.52 88.1495 156.174 81.7564 117.414 112.591L108.995 102.009L109.519 101.596C154.09 66.5952 218.578 74.0447 253.856 118.389C289.272 162.907 281.837 227.752 237.249 263.224C192.66 298.696 127.804 291.362 92.3878 246.844L91.9747 246.322C57.0303 201.82 64.5812 137.343 108.995 102.009L117.414 112.591C78.6543 143.426 72.2157 199.768 102.97 238.426Z" fill="#788990"></path><path d="M124.642 240.218C150.771 273.062 198.141 278.557 230.401 252.893C262.661 227.228 267.956 179.835 241.827 146.991C215.698 114.147 168.328 108.652 136.068 134.316L127.649 123.734L128.098 123.379C166.14 93.5108 221.395 100.083 252.049 138.122L252.409 138.573C283.108 177.161 277.024 233.082 238.82 263.475L238.371 263.83C200.179 293.816 144.639 287.074 114.06 248.636L113.702 248.183C83.409 209.611 89.5945 154.009 127.649 123.734L136.068 134.316C103.808 159.981 98.513 207.373 124.642 240.218Z" fill="#6C765A"></path><path d="M352.552 202.152C350.845 202.152 348.925 201.981 346.792 201.64C344.744 201.299 342.781 200.872 340.904 200.36C339.112 199.848 337.704 199.293 336.68 198.696C336.083 198.355 335.613 198.013 335.272 197.672C335.016 197.245 334.888 196.563 334.888 195.624L334.248 175.528C334.248 173.821 334.803 172.968 335.912 172.968C336.851 172.968 337.491 173.736 337.832 175.272L338.984 180.136C341.885 192.339 347.304 198.44 355.24 198.44C359.507 198.44 362.877 197.032 365.352 194.216C367.912 191.315 369.192 187.261 369.192 182.056C369.192 177.021 367.869 172.328 365.224 167.976C362.664 163.624 358.525 159.315 352.808 155.048C346.493 150.525 341.885 146.173 338.984 141.992C336.083 137.725 334.632 133.203 334.632 128.424C334.632 122.109 336.808 117.075 341.16 113.32C345.597 109.48 351.229 107.56 358.056 107.56C360.616 107.56 363.091 107.859 365.48 108.456C367.869 109.053 369.832 109.907 371.368 111.016C371.88 111.357 372.264 111.741 372.52 112.168C372.861 112.595 373.032 113.149 373.032 113.832L373.416 133.16C373.416 134.611 372.861 135.336 371.752 135.336C370.984 135.336 370.429 134.739 370.088 133.544L369.192 130.344C367.315 123.773 365.352 118.995 363.304 116.008C361.341 112.936 358.483 111.4 354.728 111.4C351.059 111.4 348.115 112.595 345.896 114.984C343.763 117.373 342.696 120.744 342.696 125.096C342.696 128.765 343.891 132.264 346.28 135.592C348.669 138.92 352.851 142.973 358.824 147.752C365.224 152.957 369.875 157.992 372.776 162.856C375.763 167.635 377.256 172.755 377.256 178.216C377.256 182.995 376.189 187.176 374.056 190.76C371.923 194.344 368.979 197.16 365.224 199.208C361.555 201.171 357.331 202.152 352.552 202.152ZM379.461 227.24C378.181 227.24 377.541 226.771 377.541 225.832C377.541 224.893 378.096 224.381 379.205 224.296L380.997 224.04C382.789 223.784 383.941 223.272 384.453 222.504C385.05 221.736 385.349 220.456 385.349 218.664V149.416C385.349 147.88 385.093 146.856 384.581 146.344C384.154 145.747 383.344 145.363 382.149 145.192L379.461 144.808C378.352 144.723 377.797 144.253 377.797 143.4C377.797 142.717 378.48 142.248 379.845 141.992C382.49 141.565 384.496 140.883 385.861 139.944C387.312 139.005 388.805 137.853 390.341 136.488C391.109 135.72 391.749 135.336 392.261 135.336C393.029 135.336 393.413 135.848 393.413 136.872V140.84C393.413 141.437 393.669 141.864 394.181 142.12C394.693 142.291 395.29 142.035 395.973 141.352L397.381 139.944C399.088 138.237 400.837 137 402.629 136.232C404.421 135.379 406.469 134.952 408.773 134.952C412.698 134.952 416.154 136.275 419.141 138.92C422.213 141.48 424.602 145.064 426.309 149.672C428.101 154.28 428.997 159.699 428.997 165.928C428.997 173.011 427.888 179.283 425.669 184.744C423.45 190.205 420.378 194.472 416.453 197.544C412.613 200.616 408.176 202.152 403.141 202.152C400.581 202.152 398.32 201.683 396.357 200.744C394.821 200.061 394.053 200.531 394.053 202.152V218.664C394.053 220.456 394.309 221.651 394.821 222.248C395.418 222.931 396.613 223.4 398.405 223.656L403.141 224.296C404.08 224.467 404.549 224.936 404.549 225.704C404.549 226.728 403.909 227.24 402.629 227.24H379.461ZM403.525 198.952C408.304 198.952 412.144 196.136 415.045 190.504C418.032 184.872 419.525 177.277 419.525 167.72C419.525 158.931 418.245 152.232 415.685 147.624C413.125 143.016 409.498 140.712 404.805 140.712C401.904 140.712 399.386 141.907 397.253 144.296C395.12 146.685 394.053 150.013 394.053 154.28V186.536C394.053 190.376 394.906 193.405 396.613 195.624C398.405 197.843 400.709 198.952 403.525 198.952ZM447.472 143.912C450.971 137.939 455.195 134.952 460.144 134.952C462.96 134.952 465.051 135.805 466.416 137.512C467.781 139.133 468.464 140.968 468.464 143.016C468.464 144.637 468.037 145.96 467.184 146.984C466.416 148.008 465.179 148.52 463.472 148.52C462.107 148.52 461.083 148.221 460.4 147.624C459.803 146.941 459.291 146.173 458.864 145.32C458.523 144.467 458.096 143.741 457.584 143.144C457.072 142.461 456.219 142.12 455.024 142.12C453.488 142.12 452.037 143.059 450.672 144.936C449.307 146.728 448.155 149.16 447.216 152.232C446.363 155.304 445.936 158.803 445.936 162.728V192.424C445.936 194.216 446.192 195.496 446.704 196.264C447.301 197.032 448.496 197.501 450.288 197.672L453.744 198.056C454.683 198.227 455.152 198.696 455.152 199.464C455.152 200.488 454.512 201 453.232 201H431.6C430.32 201 429.68 200.531 429.68 199.592C429.68 198.824 430.235 198.312 431.344 198.056L432.88 197.8C434.672 197.459 435.824 196.947 436.336 196.264C436.933 195.496 437.232 194.216 437.232 192.424V149.416C437.232 147.88 436.976 146.856 436.464 146.344C436.037 145.747 435.227 145.363 434.032 145.192L431.344 144.808C430.235 144.723 429.68 144.253 429.68 143.4C429.68 142.717 430.363 142.248 431.728 141.992C434.373 141.565 436.379 140.883 437.744 139.944C439.195 139.005 440.688 137.853 442.224 136.488C442.992 135.72 443.632 135.336 444.144 135.336C444.912 135.336 445.296 135.848 445.296 136.872V143.784C445.296 144.381 445.552 144.765 446.064 144.936C446.576 145.021 447.045 144.68 447.472 143.912ZM476.5 202.152C472.916 202.152 469.972 201.043 467.668 198.824C465.364 196.52 464.212 193.491 464.212 189.736C464.212 186.067 465.364 182.611 467.668 179.368C469.972 176.04 473.129 173.053 477.14 170.408C481.151 167.763 485.716 165.629 490.836 164.008C491.945 163.667 492.5 162.941 492.5 161.832V150.184C492.5 146.088 491.86 143.187 490.58 141.48C489.3 139.688 487.551 138.792 485.332 138.792C483.199 138.792 481.236 139.773 479.444 141.736C477.737 143.613 476.5 146.813 475.732 151.336C475.305 154.067 474.367 156.072 472.916 157.352C471.551 158.547 470.143 159.144 468.692 159.144C466.303 159.144 465.108 157.949 465.108 155.56C465.108 153.085 465.791 150.653 467.156 148.264C468.607 145.789 470.484 143.571 472.788 141.608C475.092 139.56 477.609 137.939 480.34 136.744C483.071 135.549 485.801 134.952 488.532 134.952C496.98 134.952 501.204 139.859 501.204 149.672V188.84C501.204 192.424 502.1 194.216 503.892 194.216C505.001 194.216 506.025 193.491 506.964 192.04C507.903 190.504 508.372 187.944 508.372 184.36C508.372 182.995 508.927 182.312 510.036 182.312C511.06 182.312 511.572 183.037 511.572 184.488C511.572 190.717 510.463 195.24 508.244 198.056C506.111 200.787 503.679 202.152 500.948 202.152C498.9 202.152 497.279 201.341 496.084 199.72C494.889 198.013 494.079 196.008 493.652 193.704C493.567 192.851 493.183 192.424 492.5 192.424C491.903 192.339 491.305 192.723 490.708 193.576C488.66 196.392 486.569 198.525 484.436 199.976C482.303 201.427 479.657 202.152 476.5 202.152ZM479.956 196.264C482.175 196.264 484.223 195.496 486.1 193.96C487.977 192.339 489.513 190.205 490.708 187.56C491.903 184.915 492.5 181.928 492.5 178.6V169.256C492.5 167.635 491.604 167.165 489.812 167.848C484.607 169.725 480.553 172.328 477.652 175.656C474.836 178.899 473.428 182.824 473.428 187.432C473.428 193.32 475.604 196.264 479.956 196.264ZM530.185 202.152C526.43 202.152 523.017 200.915 519.945 198.44C516.958 195.88 514.569 192.253 512.777 187.56C510.985 182.867 510.089 177.277 510.089 170.792C510.089 163.539 511.156 157.224 513.289 151.848C515.508 146.472 518.494 142.333 522.249 139.432C526.004 136.445 530.185 134.952 534.793 134.952C538.718 134.952 541.79 135.72 544.009 137.256C544.862 137.853 545.289 138.792 545.289 140.072L545.545 155.688C545.545 156.968 545.033 157.608 544.009 157.608C543.07 157.608 542.473 157.053 542.217 155.944C541.022 151.251 539.87 147.624 538.761 145.064C537.652 142.504 536.5 140.755 535.305 139.816C534.11 138.792 532.788 138.28 531.337 138.28C529.63 138.28 527.838 139.261 525.961 141.224C524.169 143.187 522.633 146.387 521.353 150.824C520.158 155.176 519.561 160.936 519.561 168.104C519.561 177.235 520.713 184.104 523.017 188.712C525.406 193.32 528.478 195.624 532.233 195.624C535.22 195.624 537.694 194.387 539.657 191.912C541.705 189.437 543.454 184.957 544.905 178.472C545.161 177.533 545.673 177.064 546.441 177.064C547.465 177.064 547.849 177.917 547.593 179.624C546.654 185.597 545.332 190.248 543.625 193.576C542.004 196.819 540.041 199.08 537.737 200.36C535.518 201.555 533.001 202.152 530.185 202.152ZM548.856 201C547.832 201 547.32 200.531 547.32 199.592C547.32 198.739 547.789 198.227 548.728 198.056L550.52 197.8C552.312 197.544 553.464 197.032 553.976 196.264C554.573 195.496 554.872 194.216 554.872 192.424V119.08C554.872 117.544 554.616 116.52 554.104 116.008C553.677 115.411 552.867 115.027 551.672 114.856L548.984 114.472C548.045 114.301 547.576 113.789 547.576 112.936C547.576 112.083 548.045 111.571 548.984 111.4C551.373 110.888 553.379 110.291 555 109.608C556.621 108.925 557.987 108.243 559.096 107.56C560.461 106.707 561.485 106.28 562.168 106.28C563.107 106.28 563.576 106.963 563.576 108.328V142.248C563.576 143.016 563.832 143.485 564.344 143.656C564.856 143.741 565.496 143.443 566.264 142.76C569.507 139.773 572.365 137.725 574.84 136.616C577.315 135.507 579.917 134.952 582.648 134.952C586.659 134.952 589.816 136.317 592.12 139.048C594.424 141.693 595.576 145.619 595.576 150.824V192.424C595.576 194.216 595.832 195.496 596.344 196.264C596.941 196.947 598.136 197.416 599.928 197.672L602.744 198.056C603.683 198.227 604.152 198.739 604.152 199.592C604.152 200.531 603.64 201 602.616 201H581.112C579.917 201 579.32 200.531 579.32 199.592C579.32 198.739 579.789 198.227 580.728 198.056L582.52 197.8C584.312 197.544 585.464 197.032 585.976 196.264C586.573 195.496 586.872 194.216 586.872 192.424V152.232C586.872 148.051 586.104 145.107 584.568 143.4C583.032 141.693 580.856 140.84 578.04 140.84C575.309 140.84 572.835 141.651 570.616 143.272C568.483 144.808 566.776 146.899 565.496 149.544C564.216 152.104 563.576 154.963 563.576 158.12V192.424C563.576 194.216 563.832 195.496 564.344 196.264C564.941 197.032 566.136 197.501 567.928 197.672L571.384 198.056C572.323 198.227 572.792 198.739 572.792 199.592C572.792 200.531 572.28 201 571.256 201H548.856ZM617.173 202.152C615.21 202.152 613.12 201.896 610.901 201.384C608.682 200.957 606.89 200.403 605.525 199.72C604.757 199.293 604.373 198.568 604.373 197.544L603.989 183.208C603.989 181.757 604.544 181.032 605.653 181.032C606.592 181.032 607.232 181.715 607.573 183.08C609.024 189.139 610.773 193.277 612.821 195.496C614.954 197.715 617.514 198.824 620.501 198.824C622.976 198.824 625.024 197.885 626.645 196.008C628.266 194.045 629.077 191.357 629.077 187.944C629.077 184.531 628.138 181.501 626.261 178.856C624.384 176.211 621.226 173.309 616.789 170.152C612.352 167.165 609.109 164.179 607.061 161.192C605.013 158.12 603.989 154.792 603.989 151.208C603.989 146.344 605.696 142.419 609.109 139.432C612.522 136.445 617.045 134.952 622.677 134.952C624.384 134.952 626.048 135.165 627.669 135.592C629.29 135.933 630.741 136.531 632.021 137.384C632.789 137.896 633.173 138.579 633.173 139.432L633.429 153.512C633.429 154.792 632.917 155.432 631.893 155.432C631.296 155.432 630.869 155.261 630.613 154.92C630.357 154.493 630.144 153.981 629.973 153.384C628.266 147.837 626.56 143.997 624.853 141.864C623.146 139.645 621.056 138.536 618.581 138.536C616.362 138.536 614.528 139.304 613.077 140.84C611.626 142.376 610.901 144.296 610.901 146.6C610.901 149.587 611.797 152.189 613.589 154.408C615.381 156.627 618.624 159.357 623.317 162.6C627.584 165.672 630.784 169 632.917 172.584C635.136 176.083 636.245 179.923 636.245 184.104C636.245 189.565 634.496 193.96 630.997 197.288C627.498 200.531 622.89 202.152 617.173 202.152ZM638.116 201C637.092 201 636.58 200.531 636.58 199.592C636.58 198.739 637.049 198.227 637.988 198.056L639.78 197.8C641.572 197.544 642.724 197.032 643.236 196.264C643.833 195.496 644.132 194.216 644.132 192.424V119.08C644.132 117.544 643.876 116.52 643.364 116.008C642.937 115.411 642.127 115.027 640.932 114.856L638.244 114.472C637.305 114.301 636.836 113.789 636.836 112.936C636.836 112.083 637.305 111.571 638.244 111.4C640.633 110.888 642.639 110.291 644.26 109.608C645.881 108.925 647.247 108.243 648.356 107.56C649.721 106.707 650.745 106.28 651.428 106.28C652.367 106.28 652.836 106.963 652.836 108.328V142.248C652.836 143.016 653.092 143.485 653.604 143.656C654.116 143.741 654.756 143.443 655.524 142.76C658.767 139.773 661.625 137.725 664.1 136.616C666.575 135.507 669.177 134.952 671.908 134.952C675.919 134.952 679.076 136.317 681.38 139.048C683.684 141.693 684.836 145.619 684.836 150.824V192.424C684.836 194.216 685.092 195.496 685.604 196.264C686.201 196.947 687.396 197.416 689.188 197.672L692.004 198.056C692.943 198.227 693.412 198.739 693.412 199.592C693.412 200.531 692.9 201 691.876 201H670.372C669.177 201 668.58 200.531 668.58 199.592C668.58 198.739 669.049 198.227 669.988 198.056L671.78 197.8C673.572 197.544 674.724 197.032 675.236 196.264C675.833 195.496 676.132 194.216 676.132 192.424V152.232C676.132 148.051 675.364 145.107 673.828 143.4C672.292 141.693 670.116 140.84 667.3 140.84C664.569 140.84 662.095 141.651 659.876 143.272C657.743 144.808 656.036 146.899 654.756 149.544C653.476 152.104 652.836 154.963 652.836 158.12V192.424C652.836 194.216 653.092 195.496 653.604 196.264C654.201 197.032 655.396 197.501 657.188 197.672L660.644 198.056C661.583 198.227 662.052 198.739 662.052 199.592C662.052 200.531 661.54 201 660.516 201H638.116ZM711.553 202.152C709.42 202.152 707.372 201.683 705.409 200.744C703.446 199.805 701.825 198.312 700.545 196.264C699.265 194.216 698.625 191.485 698.625 188.072V143.528C698.625 141.992 698.369 140.925 697.857 140.328C697.43 139.731 696.62 139.389 695.425 139.304L693.249 139.048C691.798 138.877 691.073 138.323 691.073 137.384C691.073 136.275 691.884 135.72 693.505 135.72H705.409C706.689 135.72 707.329 136.36 707.329 137.64V185.384C707.329 189.309 708.054 192.125 709.505 193.832C711.041 195.453 713.132 196.264 715.777 196.264C718.422 196.264 720.769 195.539 722.817 194.088C724.865 192.552 726.486 190.547 727.681 188.072C728.961 185.512 729.601 182.739 729.601 179.752V143.528C729.601 141.992 729.345 140.925 728.833 140.328C728.406 139.731 727.596 139.389 726.401 139.304L724.225 139.048C722.774 138.877 722.049 138.323 722.049 137.384C722.049 136.275 722.86 135.72 724.481 135.72H736.385C737.665 135.72 738.305 136.36 738.305 137.64V187.304C738.305 188.84 738.518 189.907 738.945 190.504C739.457 191.016 740.31 191.357 741.505 191.528L744.193 191.912C745.302 191.997 745.857 192.424 745.857 193.192C745.857 193.96 745.174 194.472 743.809 194.728C741.164 195.069 739.03 195.752 737.409 196.776C735.873 197.8 734.508 199.037 733.313 200.488C732.545 201.256 731.905 201.64 731.393 201.64C730.625 201.64 730.241 201.128 730.241 200.104V194.216C730.241 193.533 729.985 193.149 729.473 193.064C729.046 192.893 728.577 193.064 728.065 193.576C724.908 196.733 722.092 198.952 719.617 200.232C717.228 201.512 714.54 202.152 711.553 202.152ZM745.23 201C744.206 201 743.694 200.531 743.694 199.592C743.694 198.739 744.163 198.227 745.102 198.056L746.894 197.8C748.686 197.544 750.009 197.032 750.862 196.264C751.715 195.496 752.142 194.216 752.142 192.424V119.08C752.142 117.544 751.886 116.477 751.374 115.88C750.947 115.283 750.137 114.941 748.942 114.856L745.998 114.472C745.059 114.301 744.59 113.789 744.59 112.936C744.59 112.083 745.059 111.571 745.998 111.4C748.387 110.888 750.435 110.291 752.142 109.608C753.849 108.925 755.257 108.243 756.366 107.56C757.731 106.707 758.755 106.28 759.438 106.28C760.377 106.28 760.846 106.963 760.846 108.328V192.424C760.846 194.216 761.102 195.496 761.614 196.264C762.211 196.947 763.406 197.416 765.198 197.672L768.142 198.056C769.081 198.227 769.55 198.739 769.55 199.592C769.55 200.531 769.038 201 768.014 201H745.23ZM790.251 202.152C786.155 202.152 782.486 200.787 779.243 198.056C776 195.325 773.398 191.485 771.435 186.536C769.558 181.501 768.619 175.699 768.619 169.128C768.619 162.387 769.6 156.456 771.563 151.336C773.526 146.216 776.214 142.205 779.627 139.304C783.04 136.403 786.838 134.952 791.019 134.952C796.054 134.952 800.107 137.043 803.179 141.224C806.336 145.32 807.915 152.019 807.915 161.32C807.915 164.136 806.848 165.544 804.715 165.544H780.395C778.688 165.544 777.835 166.525 777.835 168.488C777.835 177.533 779.158 184.317 781.803 188.84C784.448 193.363 787.819 195.624 791.915 195.624C795.158 195.624 797.803 194.472 799.851 192.168C801.899 189.864 803.563 185.981 804.843 180.52C805.099 179.581 805.654 179.112 806.507 179.112C807.531 179.112 807.915 179.965 807.659 181.672C806.294 189.267 804.118 194.6 801.131 197.672C798.144 200.659 794.518 202.152 790.251 202.152ZM780.011 162.344H792.939C797.035 162.344 799.083 160.211 799.083 155.944C799.083 150.397 798.4 146.045 797.035 142.888C795.67 139.731 793.622 138.152 790.891 138.152C787.563 138.152 784.747 140.072 782.443 143.912C780.224 147.752 778.774 153.213 778.091 160.296C777.92 161.661 778.56 162.344 780.011 162.344Z" fill="#974315"></path><path d="M450.371 263V259.544H459.635C462.515 259.544 464.995 258.968 467.075 257.816C469.155 256.632 470.755 254.984 471.875 252.872C472.995 250.76 473.555 248.312 473.555 245.528C473.555 242.776 472.995 240.376 471.875 238.328C470.755 236.28 469.155 234.696 467.075 233.576C465.027 232.456 462.547 231.896 459.635 231.896H450.371V228.44H459.635C463.251 228.44 466.403 229.16 469.091 230.6C471.779 232.008 473.859 234.008 475.331 236.6C476.835 239.16 477.587 242.168 477.587 245.624C477.587 249.08 476.835 252.12 475.331 254.744C473.827 257.336 471.731 259.368 469.043 260.84C466.387 262.28 463.267 263 459.683 263H450.371ZM448.019 263V228.44H451.955V263H448.019ZM483.824 263V238.52H487.424V244.76H487.664V263H483.824ZM487.664 250.232L487.04 244.424C487.616 242.344 488.64 240.76 490.112 239.672C491.584 238.584 493.28 238.04 495.2 238.04C496 238.04 496.544 238.104 496.832 238.232V241.928C496.672 241.864 496.448 241.832 496.16 241.832C495.872 241.8 495.52 241.784 495.104 241.784C492.672 241.784 490.816 242.52 489.536 243.992C488.288 245.432 487.664 247.512 487.664 250.232ZM496.804 263V258.056H501.748V263H496.804ZM530.84 263.432C526.808 263.432 523.592 262.44 521.192 260.456C518.824 258.472 517.432 255.64 517.016 251.96H520.856C521.208 254.616 522.216 256.616 523.88 257.96C525.544 259.304 527.848 259.976 530.792 259.976C533.288 259.976 535.16 259.512 536.408 258.584C537.688 257.624 538.328 256.232 538.328 254.408C538.328 252.84 537.896 251.592 537.032 250.664C536.168 249.736 534.824 248.968 533 248.36L527.192 246.344C524.248 245.32 522.072 244.088 520.664 242.648C519.256 241.176 518.552 239.32 518.552 237.08C518.552 235.224 519.016 233.624 519.944 232.28C520.872 230.904 522.184 229.832 523.88 229.064C525.576 228.296 527.544 227.912 529.784 227.912C533.24 227.912 536.008 228.824 538.088 230.648C540.168 232.44 541.368 235 541.688 238.328H537.848C537.432 235.928 536.568 234.168 535.256 233.048C533.976 231.928 532.12 231.368 529.688 231.368C527.384 231.368 525.592 231.832 524.312 232.76C523.032 233.688 522.392 235 522.392 236.696C522.392 238.136 522.84 239.288 523.736 240.152C524.632 241.016 526.024 241.768 527.912 242.408L534.104 244.568C536.792 245.496 538.808 246.76 540.152 248.36C541.496 249.928 542.168 251.928 542.168 254.36C542.168 257.24 541.176 259.48 539.192 261.08C537.24 262.648 534.456 263.432 530.84 263.432ZM557.835 263.432C555.115 263.432 553.131 262.824 551.883 261.608C550.667 260.36 550.059 258.568 550.059 256.232V232.808L553.899 231.368V256.184C553.899 257.56 554.251 258.568 554.955 259.208C555.659 259.848 556.811 260.168 558.411 260.168C559.051 260.168 559.595 260.136 560.043 260.072C560.523 259.976 560.907 259.864 561.195 259.736V263C560.875 263.128 560.411 263.224 559.803 263.288C559.227 263.384 558.571 263.432 557.835 263.432ZM545.019 241.784V238.52H561.195V241.784H545.019ZM575.653 263.48C573.317 263.48 571.253 262.936 569.461 261.848C567.669 260.728 566.261 259.208 565.237 257.288C564.213 255.368 563.701 253.16 563.701 250.664C563.701 248.168 564.197 245.976 565.189 244.088C566.213 242.168 567.637 240.68 569.461 239.624C571.285 238.568 573.381 238.04 575.749 238.04C578.021 238.04 579.989 238.536 581.653 239.528C583.349 240.52 584.645 241.912 585.541 243.704C586.469 245.496 586.933 247.608 586.933 250.04C586.933 250.36 586.917 250.664 586.885 250.952C586.885 251.24 586.853 251.56 586.789 251.912H566.581V248.696H584.437L583.189 250.472C583.189 247.528 582.533 245.272 581.221 243.704C579.941 242.104 578.117 241.304 575.749 241.304C573.317 241.304 571.349 242.152 569.845 243.848C568.373 245.512 567.637 247.768 567.637 250.616C567.637 253.528 568.373 255.864 569.845 257.624C571.349 259.352 573.349 260.216 575.845 260.216C577.413 260.216 578.789 259.88 579.973 259.208C581.157 258.504 582.021 257.512 582.565 256.232H586.213C585.413 258.472 584.069 260.248 582.181 261.56C580.325 262.84 578.149 263.48 575.653 263.48ZM592.715 263V228.44H596.555V263H592.715ZM602.998 263V260.216L617.878 240.008L619.318 241.784H603.478V238.52H621.526V241.304L606.646 261.512L605.206 259.736H622.006V263H602.998ZM628.059 263V228.44H631.899V263H628.059ZM645.579 263V246.968C645.579 245.112 645.115 243.72 644.187 242.792C643.259 241.864 641.883 241.4 640.059 241.4C638.459 241.4 637.035 241.752 635.787 242.456C634.571 243.16 633.611 244.136 632.907 245.384C632.235 246.632 631.899 248.088 631.899 249.752L631.275 243.944C632.107 242.12 633.371 240.68 635.067 239.624C636.795 238.568 638.747 238.04 640.923 238.04C643.483 238.04 645.531 238.776 647.067 240.248C648.635 241.688 649.419 243.592 649.419 245.96V263H645.579ZM671.677 263C671.549 262.456 671.453 261.832 671.389 261.128C671.357 260.424 671.341 259.528 671.341 258.44H671.101V246.728C671.101 244.872 670.669 243.512 669.805 242.648C668.973 241.752 667.613 241.304 665.725 241.304C663.869 241.304 662.381 241.688 661.261 242.456C660.173 243.192 659.565 244.248 659.437 245.624H655.741C655.901 243.256 656.893 241.4 658.717 240.056C660.541 238.712 662.925 238.04 665.869 238.04C668.909 238.04 671.165 238.76 672.637 240.2C674.109 241.64 674.845 243.8 674.845 246.68V258.44C674.845 259.144 674.893 259.88 674.989 260.648C675.085 261.384 675.213 262.168 675.373 263H671.677ZM663.277 263.48C660.749 263.48 658.733 262.872 657.229 261.656C655.757 260.408 655.021 258.712 655.021 256.568C655.021 254.424 655.757 252.76 657.229 251.576C658.701 250.392 660.845 249.56 663.661 249.08L672.205 247.64V250.808L664.237 252.056C662.445 252.344 661.085 252.824 660.157 253.496C659.229 254.168 658.765 255.144 658.765 256.424C658.765 257.672 659.181 258.616 660.013 259.256C660.877 259.896 662.141 260.216 663.805 260.216C665.949 260.216 667.693 259.736 669.037 258.776C670.413 257.784 671.101 256.504 671.101 254.936L671.725 258.344C671.213 259.976 670.205 261.24 668.701 262.136C667.229 263.032 665.421 263.48 663.277 263.48ZM682.246 263V238.52H685.846V244.28H686.086V263H682.246ZM698.758 263V246.776C698.758 244.92 698.342 243.56 697.51 242.696C696.678 241.832 695.478 241.4 693.91 241.4C692.438 241.4 691.11 241.752 689.926 242.456C688.742 243.16 687.798 244.136 687.094 245.384C686.422 246.632 686.086 248.088 686.086 249.752L685.462 243.944C686.294 242.12 687.542 240.68 689.206 239.624C690.87 238.568 692.678 238.04 694.63 238.04C696.998 238.04 698.918 238.744 700.39 240.152C701.862 241.528 702.598 243.4 702.598 245.768V263H698.758ZM715.27 263V246.776C715.27 244.92 714.854 243.56 714.022 242.696C713.19 241.832 711.99 241.4 710.422 241.4C708.95 241.4 707.622 241.752 706.438 242.456C705.254 243.16 704.31 244.136 703.606 245.384C702.934 246.632 702.598 248.088 702.598 249.752L701.638 243.944C702.47 242.12 703.75 240.68 705.478 239.624C707.206 238.568 709.062 238.04 711.046 238.04C713.414 238.04 715.35 238.744 716.854 240.152C718.358 241.528 719.11 243.4 719.11 245.768V263H715.27ZM726.496 263V238.52H730.096V244.28H730.336V263H726.496ZM743.008 263V246.776C743.008 244.92 742.592 243.56 741.76 242.696C740.928 241.832 739.728 241.4 738.16 241.4C736.688 241.4 735.36 241.752 734.176 242.456C732.992 243.16 732.048 244.136 731.344 245.384C730.672 246.632 730.336 248.088 730.336 249.752L729.712 243.944C730.544 242.12 731.792 240.68 733.456 239.624C735.12 238.568 736.928 238.04 738.88 238.04C741.248 238.04 743.168 238.744 744.64 240.152C746.112 241.528 746.848 243.4 746.848 245.768V263H743.008ZM759.52 263V246.776C759.52 244.92 759.104 243.56 758.272 242.696C757.44 241.832 756.24 241.4 754.672 241.4C753.2 241.4 751.872 241.752 750.688 242.456C749.504 243.16 748.56 244.136 747.856 245.384C747.184 246.632 746.848 248.088 746.848 249.752L745.888 243.944C746.72 242.12 748 240.68 749.728 239.624C751.456 238.568 753.312 238.04 755.296 238.04C757.664 238.04 759.6 238.744 761.104 240.152C762.608 241.528 763.36 243.4 763.36 245.768V263H759.52ZM780.778 263.48C778.442 263.48 776.378 262.936 774.586 261.848C772.794 260.728 771.386 259.208 770.362 257.288C769.338 255.368 768.826 253.16 768.826 250.664C768.826 248.168 769.322 245.976 770.314 244.088C771.338 242.168 772.762 240.68 774.586 239.624C776.41 238.568 778.506 238.04 780.874 238.04C783.146 238.04 785.114 238.536 786.778 239.528C788.474 240.52 789.77 241.912 790.666 243.704C791.594 245.496 792.058 247.608 792.058 250.04C792.058 250.36 792.042 250.664 792.01 250.952C792.01 251.24 791.978 251.56 791.914 251.912H771.706V248.696H789.562L788.314 250.472C788.314 247.528 787.658 245.272 786.346 243.704C785.066 242.104 783.242 241.304 780.874 241.304C778.442 241.304 776.474 242.152 774.97 243.848C773.498 245.512 772.762 247.768 772.762 250.616C772.762 253.528 773.498 255.864 774.97 257.624C776.474 259.352 778.474 260.216 780.97 260.216C782.538 260.216 783.914 259.88 785.098 259.208C786.282 258.504 787.146 257.512 787.69 256.232H791.338C790.538 258.472 789.194 260.248 787.306 261.56C785.45 262.84 783.274 263.48 780.778 263.48ZM797.84 263V238.52H801.44V244.76H801.68V263H797.84ZM801.68 250.232L801.056 244.424C801.632 242.344 802.656 240.76 804.128 239.672C805.6 238.584 807.296 238.04 809.216 238.04C810.016 238.04 810.56 238.104 810.848 238.232V241.928C810.688 241.864 810.464 241.832 810.176 241.832C809.888 241.8 809.536 241.784 809.12 241.784C806.688 241.784 804.832 242.52 803.552 243.992C802.304 245.432 801.68 247.512 801.68 250.232Z" fill="#6C765A"></path></svg> 